<svg height='100px' width='100px'  fill="#000000" xmlns="http://www.w3.org/2000/svg" viewBox="0 0 48 48" x="0px" y="0px"><title>47-Font Design</title><g data-name="47-Font Design"><path d="M48,7V3a3,3,0,0,0-3-3H3A3,3,0,0,0,0,3V7a3,3,0,0,0,3,3H19V21H2a2,2,0,0,0-2,2v4a2,2,0,0,0,2,2H19V45a3,3,0,0,0,3,3h4a3,3,0,0,0,3-3V43.012A.918.918,0,0,1,30,42h3a1,1,0,0,0,0-2H30a2.916,2.916,0,0,0-3,3v2a1,1,0,0,1-1,1H22a1,1,0,0,1-1-1V29h6v8a1,1,0,0,0,2,0V29h2v1a1,1,0,0,0,2,0V29h3v2a3,3,0,0,0,2,2.816V36H37a1,1,0,0,0-1,1v4a1,1,0,0,0,1,1H47a1,1,0,0,0,1-1V37a1,1,0,0,0-1-1H46V33.816A3,3,0,0,0,48,31V12a4.285,4.285,0,0,0-1.041-2.747A2.981,2.981,0,0,0,48,7ZM2,27V23H31v4Zm31,0V23h3v4ZM46,40H38V38h1a1,1,0,0,0,1-1V34h4v2H43a1,1,0,0,0,0,2h3Zm0-9a1,1,0,0,1-1,1H39a1,1,0,0,1-1-1V19a1,1,0,0,1,1-1h4a1,1,0,0,0,0-2H41V13a1,1,0,0,0-1-1H36a1,1,0,0,0,0,2h3v2a3,3,0,0,0-3,3v2H33V20a1,1,0,0,0-2,0v1H21V9a1,1,0,0,0-1-1H3A1,1,0,0,1,2,7V3A1,1,0,0,1,3,2H45a1,1,0,0,1,1,1V7a1,1,0,0,1-1,1,.969.969,0,0,0-.341.069A4.529,4.529,0,0,0,44,8H28a1,1,0,0,0-1,1v9a1,1,0,0,0,2,0V10H44a1.883,1.883,0,0,1,2,2Z"></path><path d="M42,21a1,1,0,0,0-1,1v6a1,1,0,0,0,2,0V22A1,1,0,0,0,42,21Z"></path></g></svg>